<?xml version="1.0" encoding="UTF-8"?>
<svg width="170px" height="28px" viewBox="0 0 170 28" version="1.1" xmlns="http://www.w3.org/2000/svg" xmlns:xlink="http://www.w3.org/1999/xlink">
    <!-- Generator: Sketch 46.2 (44496) - http://www.bohemiancoding.com/sketch -->
    <title>Nokia/Nokia Logo White</title>
    <desc>Created with Sketch.</desc>
    <defs></defs>
    <g id="Desktop-Login-Screens" stroke="none" stroke-width="1" fill="none" fill-rule="evenodd">
        <g id="Login---Focus" transform="translate(-281.000000, -165.000000)" fill="#FFFFFE">
            <g id="Login-Box" transform="translate(279.000000, 165.000000)">
                <g id="Group-2" transform="translate(0.000000, 0.537190)">
                    <g id="Nokia/Login/Nokia-Logo-White" transform="translate(2.000000, 0.000000)">
                        <path d="M143.979939,16.4085921 L149.293501,6.90303249 L154.599066,16.4085921 L143.979939,16.4085921 Z M154.854949,0.434729242 L144.21583,0.434729242 L129.064782,26.6627437 L138.500453,26.6627437 L141.015299,22.1049097 L157.557709,22.1049097 L160.088548,26.6627437 L170,26.6627437 L154.854949,0.434729242 Z M118.911441,26.6627437 L127.47751,26.6627437 L127.47751,0.434729242 L118.911441,0.434729242 L118.911441,26.6627437 Z M115.375063,0.434729242 L104.102235,0.434729242 L89.6508661,12.9872924 L105.255706,26.6627437 L117.346159,26.6627437 L100.150049,12.6987726 L115.375063,0.434729242 Z M81.0967909,26.6627437 L89.648867,26.6627437 L89.648867,0.434729242 L81.0967909,0.434729242 L81.0967909,26.6627437 Z M70.037865,17.5061372 C70.037865,19.0384116 69.8679429,19.508231 69.4361411,19.8727798 C69.000341,20.2470758 68.322652,20.3503971 66.4555086,20.3503971 L53.1676055,20.3503971 C51.296464,20.3503971 50.6407648,20.2470758 50.1789767,19.8727798 C49.775162,19.508231 49.5912464,19.0384116 49.5912464,17.5061372 L49.5912464,9.49971119 C49.5912464,7.9498917 49.775162,7.49956679 50.1789767,7.13891697 C50.6407648,6.74707581 51.296464,6.64960289 53.1676055,6.64960289 L66.4555086,6.64960289 C68.322652,6.64960289 69.000341,6.74707581 69.4361411,7.13891697 C69.8679429,7.49956679 70.037865,7.9498917 70.037865,9.49971119 L70.037865,17.5061372 Z M66.8053481,0 L52.8237632,0 C47.9460012,0 45.427157,0.545848375 43.6859559,2.3432491 C42.5724668,3.54801444 41.8687896,4.80541516 41.8687896,8.44700361 L41.8687896,18.5588448 C41.8687896,22.2023827 42.5724668,23.4578339 43.6859559,24.6625993 C45.427157,26.4697473 47.9460012,27.0116968 52.8237632,27.0116968 L66.8053481,27.0116968 C71.6551229,27.0116968 74.2019544,26.4697473 75.9451546,24.6625993 C77.0606428,23.4578339 77.7523254,22.2023827 77.7523254,18.5588448 L77.7523254,8.44700361 C77.7523254,4.80541516 77.0606428,3.54801444 75.9451546,2.3432491 C74.2019544,0.545848375 71.6551229,0 66.8053481,0 Z M30.3940545,20.0131408 L14.153506,0.434729242 L1.0658141e-14,0.434729242 L1.0658141e-14,26.6627437 L8.17624854,26.6627437 L8.17624854,6.74707581 L24.7106622,26.6627437 L38.5822975,26.6627437 L38.5822975,0.434729242 L30.3940545,0.434729242 L30.3940545,20.0131408 L30.3940545,20.0131408 Z" id="Nokia_Logo___white_5773cedf8b2cade006723ed1"></path>
                    </g>
                </g>
            </g>
        </g>
    </g>
</svg>